# xmcd CD database file
#
# Track frame offsets:
#	150
#	26160
#	43372
#	54740
#	78365
#	109857
#	124960
#	166070
#	190017
#	228985
#	247805
#	264735
#
# Disc length: 4073 seconds
#
# Revision: 1
# Processed by: cddbd v1.5.2PL0 Copyright (c) Steve Scherf et al.
# Submitted via: CDex 1.70beta2
#
DISCID=a00fe70c
DTITLE=Opabinia - Opabinia
DYEAR=2003
DGENRE=Progressive Rock
TTITLE0=情熱の通り雨
TTITLE1=Pre-cambria dreamin'
TTITLE2=Crunchy brains
TTITLE3=ふぐ汁(昨夜の)
TTITLE4=最低人variations: part 1
TTITLE5=最低人variations: intrusion of pre-cambrians
TTITLE6=最低人variations: part 2
TTITLE7=(Slight) Googli-Moogli
TTITLE8=ヒョーロク玉
TTITLE9=コンブトリ
TTITLE10=Minerals
TTITLE11=～Tasmania
EXTD=YEAR: 2003
EXTT0=
EXTT1=
EXTT2=
EXTT3=
EXTT4=
EXTT5=
EXTT6=
EXTT7=
EXTT8=
EXTT9=
EXTT10=
EXTT11=
PLAYORDER=
